<?xml version="1.0" encoding="UTF-8" standalone="no"?>
<!-- Created with Inkscape (http://www.inkscape.org/) -->

<svg
   width="210mm"
   height="297mm"
   viewBox="0 0 210 297"
   version="1.1"
   id="svg5"
   inkscape:version="1.2.1 (9c6d41e410, 2022-07-14)"
   sodipodi:docname="рисунок.svg"
   xmlns:inkscape="http://www.inkscape.org/namespaces/inkscape"
   xmlns:sodipodi="http://sodipodi.sourceforge.net/DTD/sodipodi-0.dtd"
   xmlns="http://www.w3.org/2000/svg"
   xmlns:svg="http://www.w3.org/2000/svg">
  <sodipodi:namedview
     id="namedview7"
     pagecolor="#ffffff"
     bordercolor="#000000"
     borderopacity="0.25"
     inkscape:showpageshadow="2"
     inkscape:pageopacity="0.0"
     inkscape:pagecheckerboard="0"
     inkscape:deskcolor="#d1d1d1"
     inkscape:document-units="mm"
     showgrid="false"
     inkscape:zoom="0.50333193"
     inkscape:cx="397.3521"
     inkscape:cy="403.31238"
     inkscape:window-width="1366"
     inkscape:window-height="745"
     inkscape:window-x="-8"
     inkscape:window-y="-8"
     inkscape:window-maximized="1"
     inkscape:current-layer="layer1" />
  <defs
     id="defs2" />
  <g
     inkscape:label="Слой 1"
     inkscape:groupmode="layer"
     id="layer1">
    <path
       style="fill:#99ff55;stroke-width:0.264583"
       d="m 31.014159,72.541592 c 6.307966,-29.962832 112.492031,-18.923894 113.017701,0 C 144.55752,91.465486 58.348673,90.939823 44.155751,86.734511 29.962832,82.529203 31.014159,72.541592 31.014159,72.541592 Z"
       id="path113" />
    <path
       style="fill:#99ff55;stroke-width:0.264583"
       d="m 53.092034,83.054866 -11.038937,49.938054 32.591149,0.52566 z"
       id="path115" />
    <path
       style="fill:#99ff55;stroke-width:0.264583"
       d="M 72.015929,84.106193 103.55575,83.58053 87.260175,132.99292 Z"
       id="path117" />
    <path
       style="fill:#a02c2c;stroke-width:0.264583"
       d="m 126.15929,80.952212 -24.18053,50.463718 34.6938,0.52566 z"
       id="path119" />
    <path
       style="fill:#008000;stroke-width:0.264583"
       d="M 19.975221,152.96814 C 32.59115,124.5823 80.426548,130.89026 80.426548,130.89026 l 56.771682,1.05133 c 0,0 14.19292,3.67965 18.92389,15.76991 4.73097,12.09027 4.73097,-12.61593 13.66726,-13.14159 8.93628,-0.52566 26.28318,1.05133 22.07787,7.35929 -4.20531,6.30797 -17.87256,17.3469 -24.18053,21.02655 -6.30796,3.67965 -137.198225,7.88495 -141.403535,4.20531 -4.205309,-3.67965 -6.307964,-14.19292 -6.307964,-14.19292 z"
       id="path317" />
    <ellipse
       style="fill:#1a1a1a;stroke-width:0.264583"
       id="path479"
       cx="58.874336"
       cy="158.48761"
       rx="6.8336282"
       ry="8.6734514" />
    <ellipse
       style="fill:#1a1a1a;stroke-width:0.264583"
       id="path585"
       cx="129.5761"
       cy="158.48761"
       rx="9.1991158"
       ry="7.0964599" />
    <rect
       style="fill:#008080;stroke-width:0.264583"
       id="rect693"
       width="160.32744"
       height="103.55575"
       x="34.16814"
       y="187.66194" />
    <rect
       style="fill:#00ffff;stroke-width:0.264583"
       id="rect747"
       width="129.83894"
       height="8.9362831"
       x="33.642479"
       y="187.13628" />
    <rect
       style="fill:#800080;stroke-width:0.264583"
       id="rect801"
       width="35.745132"
       height="39.424778"
       x="157.69911"
       y="188.18761" />
    <rect
       style="fill:#aa0000;stroke-width:0.264583"
       id="rect855"
       width="59.399998"
       height="65.182304"
       x="135.09557"
       y="226.56105" />
    <circle
       style="fill:#008000;stroke-width:0.264583"
       id="path1013"
       cx="178.20001"
       cy="19.975222"
       r="6.3079643" />
    <circle
       style="fill:#aa0000;stroke-width:0.264583"
       id="path1013-5"
       cx="178.2"
       cy="36.270798"
       r="6.3079643" />
    <circle
       style="fill:#ffff00;stroke-width:0.264583"
       id="path1013-0"
       cx="178.2"
       cy="52.040707"
       r="6.3079643" />
    <path
       style="fill:#00ff00;stroke-width:1.98676"
       d="m 662.42608,156.6669 c -5.67565,-2.75402 -10.76863,-11.97123 -10.76863,-19.48894 0,-13.68853 8.88277,-21.98908 23.43791,-21.90167 20.12083,0.12082 27.87218,26.95816 11.59455,40.14354 -4.68651,3.79622 -17.63849,4.4619 -24.26383,1.24707 z"
       id="path1311"
       transform="scale(0.26458333)" />
    <path
       style="fill:#ff0000;stroke-width:1.98676"
       d="m 662.42608,95.07732 c -5.67565,-2.75402 -10.76863,-11.971229 -10.76863,-19.488934 0,-13.68853 8.88277,-21.989077 23.43791,-21.901675 20.12083,0.120823 27.87218,26.958159 11.59455,40.143545 -4.68651,3.796219 -17.63849,4.461899 -24.26383,1.247064 z"
       id="path1313"
       transform="scale(0.26458333)" />
    <rect
       style="fill:#ffff00;stroke-width:0.264583"
       id="rect1367"
       width="14.19292"
       height="7.8849554"
       x="152.44247"
       y="50.463715" />
    <rect
       style="fill:#00ff00;stroke-width:0.264583"
       id="rect1369"
       width="13.667256"
       height="8.9362831"
       x="150.33981"
       y="31.539822" />
    <rect
       style="fill:#ff0000;stroke-width:0.264583"
       id="rect1371"
       width="16.295576"
       height="11.038938"
       x="146.66017"
       y="12.615929" />
    <text
       xml:space="preserve"
       style="font-size:9.87777px;text-align:center;text-anchor:middle;fill:#ff0000;stroke-width:0.264583"
       x="96.722122"
       y="20.500885"
       id="text1502"><tspan
         sodipodi:role="line"
         id="tspan1500"
         style="stroke-width:0.264583;fill:#ff0000"
         x="96.722122"
         y="20.500885">RED</tspan></text>
    <text
       xml:space="preserve"
       style="font-size:9.87777px;text-align:center;text-anchor:middle;fill:#00ff00;stroke-width:0.264583"
       x="100.40176"
       y="35.219467"
       id="text1506"><tspan
         sodipodi:role="line"
         id="tspan1504"
         style="stroke-width:0.264583"
         x="100.40176"
         y="35.219467">GREEN</tspan></text>
    <text
       xml:space="preserve"
       style="font-size:9.87777px;text-align:center;text-anchor:middle;fill:#ffff00;stroke-width:0.264583"
       x="109.33805"
       y="45.732742"
       id="text1510"><tspan
         sodipodi:role="line"
         id="tspan1508"
         style="stroke-width:0.264583;fill:#ffff00"
         x="109.33805"
         y="45.732742">YELLOW</tspan></text>
  </g>
</svg>
